<svg xmlns="http://www.w3.org/2000/svg" viewBox="0 0 255 135" width="255" height="135">
	<style>
		tspan { white-space:pre }
		.shp0 { fill: #ffc715 } 
		.shp1 { fill: #a3cd3b } 
		.shp2 { fill: #0093d7 } 
		.shp3 { fill: #3d3d3f } 
	</style>
	<g id="Meter">
		<path id="Shape 2" class="shp0" d="M56.58,127.9c0,-25.34 9.77,-42.65 28.43,-57.29l-34.84,-42.35c-29.92,23.14 -49.18,59.15 -49.18,99.64z" />
		<path id="Shape 3" class="shp1" d="M90.68,67c12.16,-7.85 26.3,-12.2 38.35,-12.2c12.09,0 23.7,2.29 38.39,12.2l34.52,-43.04c-20.54,-14.46 -45.69,-23 -72.9,-23c-27.17,0 -52.33,8.54 -72.91,23z" />
		<path id="Shape 4" class="shp2" d="M172.57,70.61c17.09,13.89 27.49,31.95 27.49,57.29h53.99c0,-40.49 -18.67,-76.5 -47.79,-99.64z" />
		<path id="Shape 5" class="shp3" d="M138.66,129.86c2.84,-4.26 1.7,-10.07 -2.51,-12.95v0l-51.31,-21.91l41.03,37.44c4.25,2.84 9.98,1.72 12.79,-2.58z" />
	</g>
</svg>